PathFileType	4	(X/Y/Z)	D:\Share\Shared_Data\Ergonomics\Sit To Stand Pertubation\S0\Free STS.trc
DataRate	CameraRate	NumFrames	NumMarkers	Units	OrigDataRate	OrigDataStartFrame	OrigNumFrames	
100	100	14	18	m	100	2168	231
Frame#	Time	R_Toe			R_ASIS			R_Pelvis			V_Sacral			L_Pelvis			L_ASIS			Clavical			R_Acromium			L_Acromium			Sternum			Torso			R_Thigh_Med			R_Thigh_Lat			R_Thigh			R_Shank_Med			R_Shank_Lat			R_Shank			R_Heel			
		X1	Y1	Z1	X2	Y2	Z2	X3	Y3	Z3	X4	Y4	Z4	X5	Y5	Z5	X6	Y6	Z6	X7	Y7	Z7	X8	Y8	Z8	X9	Y9	Z9	X10	Y10	Z10	X11	Y11	Z11	X12	Y12	Z12	X13	Y13	Z13	X14	Y14	Z14	X15	Y15	Z15	X16	Y16	Z16	X17	Y17	Z17	X18	Y18	Z18	

2168	8.1	0.37866577	0.047054478	0.14542635	-0.043134789	0.74174023	0.1591198	-0.16927942	0.72222412	0.20629749	-0.28783954	0.690703	-0.021181156	-0.15117148	0.71409808	-0.20447125	-0.030684553	0.73880286	-0.15843042	-0.048065861	1.1308307	-0.0044290605	-0.13038234	1.1835055	0.14197206	-0.14850777	1.1875961	-0.15173708	-0.011354023	1.04053	-0.023762686	-0.044886013	1.0847123	-0.12837558	0.30922595	0.4888678	0.080996002	0.28860941	0.50855316	0.21377037	0.21570676	0.64137146	0.12817049	0.25529164	0.10417429	0.10897898	0.19732111	0.091755257	0.19647641	0.25227249	0.31084506	0.22170599	0.15629655	0.049634125	0.14950626
2169	8.11	0.37866806	0.047052799	0.14542809	-0.043079174	0.74174585	0.15911488	-0.1692157	0.72224786	0.2062856	-0.28777588	0.69075171	-0.021185326	-0.151089	0.71408313	-0.2044731	-0.030599295	0.73878534	-0.15842851	-0.047895203	1.1308351	-0.0044953928	-0.13024396	1.1835647	0.14187106	-0.14827223	1.1875636	-0.15184836	-0.011169337	1.0405304	-0.023789722	-0.044655174	1.0846921	-0.12842001	0.30927237	0.48885464	0.081000793	0.28865604	0.50855075	0.21377122	0.21574812	0.64136511	0.12815283	0.25529889	0.10416556	0.10896838	0.19732454	0.091750954	0.19645726	0.25228775	0.31083987	0.22170163	0.15629822	0.049633675	0.14949258
2170	8.12	0.37867041	0.04705286	0.1454287	-0.043029694	0.74175409	0.15910904	-0.16915834	0.72227649	0.20627065	-0.28771655	0.69080054	-0.021189934	-0.15101155	0.71407434	-0.20446863	-0.030516153	0.73876923	-0.15842644	-0.047727821	1.130843	-0.0045533466	-0.13010924	1.1836312	0.14177461	-0.14803072	1.1875381	-0.15195267	-0.010982906	1.0405343	-0.023807125	-0.044418415	1.0846763	-0.12845607	0.30930624	0.48884253	0.081004807	0.28869681	0.50854843	0.21377277	0.21578398	0.6413584	0.12813516	0.25530177	0.10415659	0.10895901	0.19732671	0.091745178	0.19643977	0.25230426	0.31083255	0.22169795	0.15629796	0.049630501	0.14948071
2171	8.13	0.37867282	0.047054836	0.1454285	-0.042985764	0.74176398	0.15910313	-0.16910796	0.72230951	0.20625272	-0.2876615	0.69084863	-0.021195312	-0.150939	0.71407074	-0.20445741	-0.030435148	0.73875415	-0.15842393	-0.047562153	1.1308525	-0.0046024094	-0.12997798	1.1837029	0.14168242	-0.14778288	1.1875178	-0.15204997	-0.010796077	1.0405389	-0.023814444	-0.044175652	1.0846628	-0.12848387	0.3093295	0.48883191	0.081009384	0.28873108	0.50854529	0.21377643	0.21581506	0.64135168	0.12812035	0.25530096	0.10414774	0.10895147	0.19732704	0.091738388	0.1964248	0.25232071	0.31082361	0.22169598	0.15629558	0.049625237	0.14947073
2172	8.14	0.3786752	0.047058762	0.14542783	-0.042947102	0.74177386	0.15909761	-0.16906476	0.72234546	0.20623187	-0.28761078	0.69089526	-0.021201992	-0.15087119	0.71407123	-0.20443987	-0.030356194	0.73873962	-0.1584209	-0.047396294	1.1308616	-0.0046424241	-0.12985008	1.183777	0.14159448	-0.14752849	1.1875004	-0.15214069	-0.010609879	1.0405425	-0.023811541	-0.043927353	1.0846492	-0.12850375	0.30934445	0.48882303	0.081015938	0.28875839	0.5085405	0.2137834	0.21584219	0.6413457	0.12811101	0.25529755	0.10413963	0.10894614	0.19732518	0.091731041	0.19641301	0.25233554	0.31081363	0.22169653	0.15629129	0.049618607	0.14946251
2173	8.15	0.3786774	0.047064316	0.14542702	-0.042913601	0.74178217	0.15909268	-0.16902838	0.72238269	0.20620892	-0.28756442	0.69093921	-0.021210442	-0.15080869	0.71407428	-0.20441724	-0.030279062	0.73872552	-0.15841742	-0.047228622	1.1308682	-0.0046735911	-0.12972537	1.1838512	0.14151105	-0.14726752	1.1874838	-0.15222545	-0.010425225	1.0405437	-0.023798708	-0.043674477	1.0846338	-0.12851634	0.30935342	0.48881598	0.081025688	0.28877869	0.50853418	0.21379457	0.21586606	0.64134052	0.12810899	0.25529308	0.10413308	0.10894315	0.197321	0.091723526	0.19640448	0.25234714	0.31080347	0.2217001	0.15628552	0.049611176	0.14945575
2174	8.16	0.37867911	0.047071091	0.1454265	-0.042885063	0.74178796	0.15908856	-0.16899814	0.72241876	0.20618486	-0.28752274	0.69097949	-0.021220842	-0.15075218	0.71407788	-0.20439201	-0.030203379	0.7387121	-0.15841376	-0.047058216	1.1308715	-0.0046963282	-0.12960355	1.1839229	0.14143254	-0.14700034	1.1874668	-0.15230496	-0.01024288	1.0405408	-0.023776657	-0.043418339	1.084615	-0.12852232	0.3093587	0.48881088	0.081039543	0.28879208	0.50852649	0.21381052	0.21588713	0.64133612	0.12811557	0.25528889	0.10412865	0.10894249	0.19731465	0.091716125	0.19639902	0.25235435	0.31079376	0.22170679	0.15627875	0.049603413	0.14945012
2175	8.17	0.37868024	0.047078781	0.14542653	-0.042861336	0.74179041	0.15908585	-0.1689734	0.72245184	0.2061604	-0.28748578	0.69101501	-0.021233103	-0.15070142	0.71408057	-0.20436748	-0.030128654	0.73869952	-0.15841031	-0.046884777	1.13087	-0.0047111363	-0.12948431	1.1839896	0.14135934	-0.14672762	1.1874479	-0.15237991	-0.010063084	1.0405334	-0.023746401	-0.043160454	1.084592	-0.12852254	0.30936249	0.48880768	0.081057922	0.28879889	0.50851804	0.2138313	0.21590556	0.64133264	0.12813106	0.25528568	0.10412643	0.10894398	0.19730658	0.091709091	0.19639619	0.25235692	0.31078479	0.22171643	0.15627144	0.049595684	0.14944539
2176	8.18	0.37868076	0.047087048	0.14542741	-0.042842644	0.74178912	0.1590849	-0.16895366	0.72247998	0.20613611	-0.28745386	0.69104486	-0.021246847	-0.1506552	0.71408105	-0.20434682	-0.030054422	0.73868835	-0.15840756	-0.046708195	1.1308632	-0.0047185583	-0.1293671	1.1840496	0.14129179	-0.14645021	1.1874263	-0.15245088	-0.0098851538	1.0405204	-0.023709166	-0.042902122	1.0845643	-0.12851791	0.3093663	0.48880627	0.081080795	0.28879977	0.50850909	0.21385663	0.21592122	0.64132996	0.12815509	0.25528357	0.10412628	0.10894733	0.19729749	0.09170266	0.19639565	0.25235504	0.31077673	0.22172865	0.15626433	0.049588226	0.14944128
2177	8.19	0.37868073	0.047095566	0.14542931	-0.042829475	0.74178394	0.15908566	-0.16893871	0.7225022	0.20611275	-0.2874274	0.69106879	-0.021261339	-0.15061247	0.71407867	-0.20433194	-0.029980421	0.7386792	-0.15840575	-0.04652824	1.130851	-0.0047192011	-0.12925114	1.1841011	0.14123	-0.14616882	1.1874011	-0.15251843	-0.0097075434	1.0405016	-0.023666452	-0.042644035	1.0845319	-0.12850955	0.30937106	0.48880682	0.081107651	0.2887952	0.50850015	0.21388565	0.21593381	0.64132831	0.12818663	0.25528238	0.10412808	0.10895235	0.19728822	0.091697235	0.19639725	0.25234932	0.31076981	0.2217431	0.15625812	0.04958136	0.14943777
2178	8.2	0.37868021	0.047104111	0.14543208	-0.042822014	0.74177588	0.15908749	-0.16892876	0.72251807	0.20609134	-0.28740714	0.69108667	-0.02127562	-0.15057309	0.71407355	-0.20432288	-0.029906782	0.73867279	-0.15840489	-0.046344364	1.1308333	-0.0047138586	-0.12913507	1.1841436	0.14117395	-0.14588371	1.1873728	-0.15258295	-0.0095283003	1.0404771	-0.023620039	-0.042385864	1.0844954	-0.12849867	0.30937677	0.48880966	0.081137566	0.28878574	0.50849176	0.2139173	0.21594272	0.64132812	0.12822404	0.25528145	0.1041316	0.10895894	0.19727956	0.091693382	0.19640099	0.25234038	0.31076416	0.22175955	0.15625327	0.049575684	0.14943474
2179	8.21	0.37867926	0.047112526	0.14543555	-0.042819927	0.74176678	0.1590899	-0.16892444	0.72252844	0.20607312	-0.28739395	0.69109894	-0.021288731	-0.15053763	0.71406647	-0.20431837	-0.029834038	0.73866992	-0.15840474	-0.046155567	1.130811	-0.0047036982	-0.12901692	1.1841768	0.14112346	-0.14559433	1.1873419	-0.15264452	-0.0093456707	1.0404463	-0.02357177	-0.042126225	1.084455	-0.12848656	0.30938257	0.48881543	0.081169296	0.28877161	0.50848471	0.21395029	0.21594711	0.64132971	0.12826535	0.2552796	0.10413639	0.10896707	0.1972718	0.091691582	0.19640704	0.25232896	0.3107601	0.22177773	0.15624989	0.049571911	0.14943239
2180	8.22	0.37867816	0.047120956	0.14543948	-0.042822857	0.74175891	0.15909276	-0.16892632	0.72253436	0.20605939	-0.28738879	0.6911059	-0.021299864	-0.15050691	0.71405847	-0.20431653	-0.029762936	0.73867157	-0.158405	-0.045960258	1.1307849	-0.0046902418	-0.12889397	1.1842024	0.14107826	-0.14529961	1.1873092	-0.15270305	-0.009158453	1.04041	-0.023523319	-0.041862774	1.0844121	-0.12847429	0.30938635	0.48882446	0.081201309	0.2887529	0.50848007	0.21398332	0.21594591	0.64133356	0.12830821	0.25527576	0.10414205	0.10897675	0.19726497	0.091692169	0.19641563	0.25231555	0.31075787	0.22179726	0.1562478	0.049570492	0.14943109
2181	8.23	0.37867722	0.047130077	0.14544376	-0.042830948	0.74175311	0.15909596	-0.16893492	0.72253729	0.20605156	-0.2873924	0.69110785	-0.021308361	-0.15048209	0.71405078	-0.20431525	-0.029694307	0.73867841	-0.15840533	-0.045756233	1.1307551	-0.0046750922	-0.12876288	1.184222	0.14103787	-0.14499808	1.1872756	-0.15275833	-0.0089658813	1.0403683	-0.023476051	-0.041592628	1.0843679	-0.12846275	0.30938535	0.4888371	0.081231895	0.28872937	0.50847888	0.214015	0.21593823	0.64134033	0.12835025	0.25526962	0.10414859	0.10898792	0.19725883	0.091695236	0.1964268	0.25230023	0.31075757	0.22181784	0.15624646	0.049571316	0.14943147
